<?xml version="1.0" encoding="UTF-8"?>
<svg xmlns="http://www.w3.org/2000/svg" xmlns:xlink="http://www.w3.org/1999/xlink" width="20px" height="24px" viewBox="0 0 20 24" version="1.1">
<g id="surface1">
<path style=" stroke:none;fill-rule:nonzero;fill:rgb(0%,0%,0%);fill-opacity:1;" d="M 19.363281 8.179688 C 19.222656 8.289062 16.707031 9.675781 16.707031 12.753906 C 16.707031 16.316406 19.90625 17.574219 20.003906 17.605469 C 19.988281 17.683594 19.492188 19.332031 18.316406 21.011719 C 17.261719 22.492188 16.164062 23.964844 14.492188 23.964844 C 12.824219 23.964844 12.394531 23.019531 10.464844 23.019531 C 8.585938 23.019531 7.917969 23.996094 6.386719 23.996094 C 4.859375 23.996094 3.792969 22.628906 2.566406 20.949219 C 1.148438 18.976562 0 15.910156 0 13.003906 C 0 8.335938 3.105469 5.863281 6.164062 5.863281 C 7.785156 5.863281 9.140625 6.90625 10.160156 6.90625 C 11.128906 6.90625 12.644531 5.800781 14.492188 5.800781 C 15.191406 5.800781 17.707031 5.863281 19.363281 8.179688 Z M 13.613281 3.824219 C 14.378906 2.941406 14.917969 1.710938 14.917969 0.480469 C 14.917969 0.3125 14.902344 0.140625 14.871094 0 C 13.628906 0.046875 12.148438 0.808594 11.257812 1.820312 C 10.558594 2.597656 9.902344 3.824219 9.902344 5.070312 C 9.902344 5.257812 9.9375 5.445312 9.949219 5.503906 C 10.03125 5.519531 10.15625 5.535156 10.285156 5.535156 C 11.402344 5.535156 12.804688 4.808594 13.613281 3.824219 Z M 13.613281 3.824219 "/>
</g>
</svg>
